<svg width="72" height="12" viewBox="0 0 72 12" fill="none" xmlns="http://www.w3.org/2000/svg">
<path d="M6.97727 0.272727V9H5.95455L1.19886 2.14773H1.11364V9H0.0568182V0.272727H1.07955L5.85227 7.14205H5.9375V0.272727H6.97727ZM11.6147 9.13636C11.0238 9.13636 10.5053 8.99574 10.0593 8.71449C9.61612 8.43324 9.26953 8.03977 9.01953 7.53409C8.77237 7.02841 8.64879 6.4375 8.64879 5.76136C8.64879 5.07955 8.77237 4.48437 9.01953 3.97585C9.26953 3.46733 9.61612 3.07244 10.0593 2.79119C10.5053 2.50994 11.0238 2.36932 11.6147 2.36932C12.2056 2.36932 12.7227 2.50994 13.1658 2.79119C13.6119 3.07244 13.9585 3.46733 14.2056 3.97585C14.4556 4.48437 14.5806 5.07955 14.5806 5.76136C14.5806 6.4375 14.4556 7.02841 14.2056 7.53409C13.9585 8.03977 13.6119 8.43324 13.1658 8.71449C12.7227 8.99574 12.2056 9.13636 11.6147 9.13636ZM11.6147 8.23295C12.0636 8.23295 12.4329 8.1179 12.7227 7.88778C13.0124 7.65767 13.2269 7.35511 13.3661 6.98011C13.5053 6.60511 13.5749 6.19886 13.5749 5.76136C13.5749 5.32386 13.5053 4.91619 13.3661 4.53835C13.2269 4.16051 13.0124 3.85511 12.7227 3.62216C12.4329 3.3892 12.0636 3.27273 11.6147 3.27273C11.1658 3.27273 10.7965 3.3892 10.5067 3.62216C10.217 3.85511 10.0025 4.16051 9.86328 4.53835C9.72408 4.91619 9.65447 5.32386 9.65447 5.76136C9.65447 6.19886 9.72408 6.60511 9.86328 6.98011C10.0025 7.35511 10.217 7.65767 10.5067 7.88778C10.7965 8.1179 11.1658 8.23295 11.6147 8.23295ZM21.2337 2.45455L18.8132 9H17.7905L15.37 2.45455H16.4609L18.2678 7.67045H18.3359L20.1428 2.45455H21.2337ZM24.288 9.15341C23.8732 9.15341 23.4968 9.07528 23.1587 8.91903C22.8207 8.75994 22.5522 8.53125 22.3533 8.23295C22.1545 7.93182 22.055 7.56818 22.055 7.14205C22.055 6.76705 22.1289 6.46307 22.2766 6.23011C22.4244 5.99432 22.6218 5.80966 22.869 5.67614C23.1161 5.54261 23.3888 5.44318 23.6871 5.37784C23.9883 5.30966 24.2908 5.25568 24.5948 5.21591C24.9925 5.16477 25.315 5.12642 25.5621 5.10085C25.8121 5.07244 25.994 5.02557 26.1076 4.96023C26.2241 4.89489 26.2823 4.78125 26.2823 4.61932V4.58523C26.2823 4.16477 26.1673 3.83807 25.9371 3.60511C25.7099 3.37216 25.3647 3.25568 24.9016 3.25568C24.4215 3.25568 24.0451 3.3608 23.7724 3.57102C23.4996 3.78125 23.3079 4.00568 23.1971 4.24432L22.2425 3.90341C22.413 3.50568 22.6403 3.19602 22.9244 2.97443C23.2113 2.75 23.5238 2.59375 23.8619 2.50568C24.2028 2.41477 24.538 2.36932 24.8675 2.36932C25.0778 2.36932 25.3192 2.39489 25.592 2.44602C25.8675 2.49432 26.1332 2.59517 26.3888 2.74858C26.6474 2.90199 26.8619 3.13352 27.0323 3.44318C27.2028 3.75284 27.288 4.16761 27.288 4.6875V9H26.2823V8.11364H26.2312C26.163 8.25568 26.0494 8.40767 25.8903 8.5696C25.7312 8.73153 25.5195 8.86932 25.2553 8.98295C24.9911 9.09659 24.6687 9.15341 24.288 9.15341ZM24.4414 8.25C24.8391 8.25 25.1744 8.17188 25.4471 8.01562C25.7227 7.85938 25.93 7.65767 26.0692 7.41051C26.2113 7.16335 26.2823 6.90341 26.2823 6.63068V5.71023C26.2397 5.76136 26.146 5.80824 26.0011 5.85085C25.859 5.89062 25.6942 5.92614 25.5067 5.95739C25.3221 5.9858 25.1417 6.01136 24.9656 6.03409C24.7923 6.05398 24.6516 6.07102 24.5437 6.08523C24.2823 6.11932 24.038 6.17472 23.8107 6.25142C23.5863 6.32528 23.4045 6.4375 23.2653 6.58807C23.1289 6.7358 23.0607 6.9375 23.0607 7.19318C23.0607 7.54261 23.19 7.80682 23.4485 7.9858C23.7099 8.16193 24.0408 8.25 24.4414 8.25Z" fill="white"/>
<path d="M30.3168 0.272727V9H29.2599V0.272727H30.3168ZM32.2994 9V2.45455H33.271V3.47727H33.3562C33.4925 3.12784 33.7127 2.85653 34.0167 2.66335C34.3207 2.46733 34.6857 2.36932 35.1119 2.36932C35.5437 2.36932 35.9031 2.46733 36.19 2.66335C36.4798 2.85653 36.7056 3.12784 36.8675 3.47727H36.9357C37.1033 3.1392 37.3548 2.87074 37.69 2.67188C38.0252 2.47017 38.4272 2.36932 38.896 2.36932C39.4812 2.36932 39.9599 2.55256 40.332 2.91903C40.7042 3.28267 40.8903 3.84943 40.8903 4.61932V9H39.8846V4.61932C39.8846 4.13636 39.7525 3.79119 39.4883 3.58381C39.2241 3.37642 38.913 3.27273 38.555 3.27273C38.0948 3.27273 37.7383 3.41193 37.4854 3.69034C37.2326 3.96591 37.1062 4.31534 37.1062 4.73864V9H36.0835V4.51705C36.0835 4.14489 35.9627 3.84517 35.7212 3.6179C35.4798 3.38778 35.1687 3.27273 34.788 3.27273C34.5266 3.27273 34.2823 3.34233 34.055 3.48153C33.8306 3.62074 33.6488 3.81392 33.5096 4.06108C33.3732 4.3054 33.305 4.58807 33.305 4.90909V9H32.2994ZM42.729 11.4545V2.45455H43.7006V3.49432H43.82C43.8938 3.38068 43.9961 3.2358 44.1268 3.05966C44.2603 2.88068 44.4506 2.72159 44.6978 2.58239C44.9478 2.44034 45.2859 2.36932 45.712 2.36932C46.2631 2.36932 46.7489 2.5071 47.1694 2.78267C47.5898 3.05824 47.918 3.44886 48.1538 3.95455C48.3896 4.46023 48.5075 5.05682 48.5075 5.74432C48.5075 6.4375 48.3896 7.03835 48.1538 7.54688C47.918 8.05256 47.5913 8.4446 47.1737 8.72301C46.756 8.99858 46.2745 9.13636 45.729 9.13636C45.3086 9.13636 44.9719 9.06676 44.7191 8.92756C44.4663 8.78551 44.2717 8.625 44.1353 8.44602C43.9989 8.2642 43.8938 8.11364 43.82 7.99432H43.7347V11.4545H42.729ZM43.7177 5.72727C43.7177 6.22159 43.7901 6.65767 43.935 7.03551C44.0799 7.41051 44.2915 7.70455 44.57 7.91761C44.8484 8.12784 45.1893 8.23295 45.5927 8.23295C46.0131 8.23295 46.364 8.12216 46.6452 7.90057C46.9293 7.67614 47.1424 7.375 47.2844 6.99716C47.4293 6.61648 47.5018 6.19318 47.5018 5.72727C47.5018 5.26705 47.4308 4.85227 47.2887 4.48295C47.1495 4.1108 46.9379 3.81676 46.6538 3.60085C46.3725 3.3821 46.0188 3.27273 45.5927 3.27273C45.1836 3.27273 44.8398 3.37642 44.5614 3.58381C44.283 3.78835 44.0728 4.07528 43.9308 4.4446C43.7887 4.81108 43.7177 5.23864 43.7177 5.72727ZM52.7006 9.13636C52.1097 9.13636 51.5913 8.99574 51.1452 8.71449C50.7021 8.43324 50.3555 8.03977 50.1055 7.53409C49.8583 7.02841 49.7347 6.4375 49.7347 5.76136C49.7347 5.07955 49.8583 4.48437 50.1055 3.97585C50.3555 3.46733 50.7021 3.07244 51.1452 2.79119C51.5913 2.50994 52.1097 2.36932 52.7006 2.36932C53.2915 2.36932 53.8086 2.50994 54.2518 2.79119C54.6978 3.07244 55.0444 3.46733 55.2915 3.97585C55.5415 4.48437 55.6665 5.07955 55.6665 5.76136C55.6665 6.4375 55.5415 7.02841 55.2915 7.53409C55.0444 8.03977 54.6978 8.43324 54.2518 8.71449C53.8086 8.99574 53.2915 9.13636 52.7006 9.13636ZM52.7006 8.23295C53.1495 8.23295 53.5188 8.1179 53.8086 7.88778C54.0984 7.65767 54.3129 7.35511 54.4521 6.98011C54.5913 6.60511 54.6609 6.19886 54.6609 5.76136C54.6609 5.32386 54.5913 4.91619 54.4521 4.53835C54.3129 4.16051 54.0984 3.85511 53.8086 3.62216C53.5188 3.3892 53.1495 3.27273 52.7006 3.27273C52.2518 3.27273 51.8825 3.3892 51.5927 3.62216C51.3029 3.85511 51.0884 4.16051 50.9492 4.53835C50.81 4.91619 50.7404 5.32386 50.7404 5.76136C50.7404 6.19886 50.81 6.60511 50.9492 6.98011C51.0884 7.35511 51.3029 7.65767 51.5927 7.88778C51.8825 8.1179 52.2518 8.23295 52.7006 8.23295ZM57.2017 9V2.45455H58.1733V3.44318H58.2415C58.3608 3.11932 58.5767 2.85653 58.8892 2.65483C59.2017 2.45312 59.554 2.35227 59.946 2.35227C60.0199 2.35227 60.1122 2.35369 60.223 2.35653C60.3338 2.35937 60.4176 2.36364 60.4744 2.36932V3.39205C60.4403 3.38352 60.3622 3.37074 60.2401 3.35369C60.1207 3.33381 59.9943 3.32386 59.8608 3.32386C59.5426 3.32386 59.2585 3.39062 59.0085 3.52415C58.7614 3.65483 58.5653 3.83665 58.4205 4.0696C58.2784 4.29972 58.2074 4.5625 58.2074 4.85795V9H57.2017ZM64.9233 2.45455V3.30682H61.5312V2.45455H64.9233ZM62.5199 0.886364H63.5256V7.125C63.5256 7.40909 63.5668 7.62216 63.6491 7.7642C63.7344 7.90341 63.8423 7.99716 63.973 8.04545C64.1065 8.09091 64.2472 8.11364 64.3949 8.11364C64.5057 8.11364 64.5966 8.10795 64.6676 8.09659C64.7386 8.08239 64.7955 8.07102 64.8381 8.0625L65.0426 8.96591C64.9744 8.99148 64.8793 9.01705 64.7571 9.04261C64.6349 9.07102 64.4801 9.08523 64.2926 9.08523C64.0085 9.08523 63.7301 9.02415 63.4574 8.90199C63.1875 8.77983 62.9631 8.59375 62.7841 8.34375C62.608 8.09375 62.5199 7.77841 62.5199 7.39773V0.886364ZM70.9553 3.92045L70.0518 4.17614C69.995 4.02557 69.9112 3.87926 69.8004 3.73722C69.6925 3.59233 69.5447 3.47301 69.3572 3.37926C69.1697 3.28551 68.9297 3.23864 68.6371 3.23864C68.2365 3.23864 67.9027 3.33097 67.6357 3.51562C67.3714 3.69744 67.2393 3.92898 67.2393 4.21023C67.2393 4.46023 67.3303 4.65767 67.5121 4.80256C67.6939 4.94744 67.978 5.06818 68.3643 5.16477L69.3359 5.40341C69.9212 5.54545 70.3572 5.76278 70.6442 6.0554C70.9311 6.34517 71.0746 6.71875 71.0746 7.17614C71.0746 7.55114 70.9666 7.88636 70.7507 8.18182C70.5376 8.47727 70.2393 8.71023 69.8558 8.88068C69.4723 9.05114 69.0263 9.13636 68.5178 9.13636C67.8501 9.13636 67.2976 8.99148 66.8601 8.7017C66.4226 8.41193 66.1456 7.98864 66.0291 7.43182L66.9837 7.19318C67.0746 7.54545 67.2464 7.80966 67.4993 7.9858C67.755 8.16193 68.0888 8.25 68.5007 8.25C68.9695 8.25 69.3416 8.15057 69.6172 7.9517C69.8956 7.75 70.0348 7.50852 70.0348 7.22727C70.0348 7 69.9553 6.80966 69.7962 6.65625C69.6371 6.5 69.3928 6.38352 69.0632 6.30682L67.9723 6.05114C67.3729 5.90909 66.9325 5.68892 66.6513 5.39062C66.3729 5.08949 66.2337 4.71307 66.2337 4.26136C66.2337 3.89205 66.3374 3.56534 66.5447 3.28125C66.755 2.99716 67.0405 2.77415 67.4013 2.61222C67.7649 2.45028 68.1768 2.36932 68.6371 2.36932C69.2848 2.36932 69.7933 2.51136 70.1626 2.79545C70.5348 3.07955 70.799 3.45455 70.9553 3.92045Z" fill="#FFD700"/>
<path d="M6.97727 0.272727H7.97727V-0.727273H6.97727V0.272727ZM6.97727 9V10H7.97727V9H6.97727ZM5.95455 9L5.13302 9.57017L5.43133 10H5.95455V9ZM1.19886 2.14773L2.02039 1.57756L1.72208 1.14773H1.19886V2.14773ZM1.11364 2.14773V1.14773H0.113636V2.14773H1.11364ZM1.11364 9V10H2.11364V9H1.11364ZM0.0568182 9H-0.943182V10H0.0568182V9ZM0.0568182 0.272727V-0.727273H-0.943182V0.272727H0.0568182ZM1.07955 0.272727L1.90078 -0.29786L1.60243 -0.727273H1.07955V0.272727ZM5.85227 7.14205L5.03104 7.71263L5.32939 8.14205H5.85227V7.14205ZM5.9375 7.14205V8.14205H6.9375V7.14205H5.9375ZM5.9375 0.272727V-0.727273H4.9375V0.272727H5.9375ZM5.97727 0.272727V9H7.97727V0.272727H5.97727ZM6.97727 8H5.95455V10H6.97727V8ZM6.77608 8.42983L2.02039 1.57756L0.377334 2.71789L5.13302 9.57017L6.77608 8.42983ZM1.19886 1.14773H1.11364V3.14773H1.19886V1.14773ZM0.113636 2.14773V9H2.11364V2.14773H0.113636ZM1.11364 8H0.0568182V10H1.11364V8ZM1.05682 9V0.272727H-0.943182V9H1.05682ZM0.0568182 1.27273H1.07955V-0.727273H0.0568182V1.27273ZM0.258308 0.843314L5.03104 7.71263L6.67351 6.57146L1.90078 -0.29786L0.258308 0.843314ZM5.85227 8.14205H5.9375V6.14205H5.85227V8.14205ZM6.9375 7.14205V0.272727H4.9375V7.14205H6.9375ZM5.9375 1.27273H6.97727V-0.727273H5.9375V1.27273ZM10.0593 8.71449L9.52348 9.55882L9.52592 9.56036L10.0593 8.71449ZM9.01953 7.53409L8.12109 7.97321L8.1231 7.97727L9.01953 7.53409ZM9.01953 3.97585L8.12211 3.53466L8.12014 3.53872L9.01953 3.97585ZM10.0593 2.79119L9.52592 1.94532L9.52348 1.94686L10.0593 2.79119ZM13.1658 2.79119L12.63 3.63553L12.6325 3.63707L13.1658 2.79119ZM14.2056 3.97585L13.3062 4.41299L13.3082 4.41704L14.2056 3.97585ZM14.2056 7.53409L13.3092 7.09091L13.3072 7.09497L14.2056 7.53409ZM13.1658 8.71449L12.6325 7.86861L12.63 7.87016L13.1658 8.71449ZM12.7227 7.88778L12.1008 7.10467L12.1008 7.10467L12.7227 7.88778ZM13.3661 6.98011L14.3036 7.32812L14.3036 7.32812L13.3661 6.98011ZM13.3661 4.53835L14.3045 4.19265L14.3045 4.19265L13.3661 4.53835ZM12.7227 3.62216L13.3492 2.84278L13.3492 2.84278L12.7227 3.62216ZM10.5067 3.62216L9.88019 2.84278L9.88019 2.84278L10.5067 3.62216ZM9.86328 4.53835L8.92494 4.19265L8.92494 4.19265L9.86328 4.53835ZM9.86328 6.98011L8.92579 7.32812L8.92579 7.32812L9.86328 6.98011ZM10.5067 7.88778L11.1286 7.10467L11.1286 7.10467L10.5067 7.88778ZM11.6147 8.13636C11.1891 8.13636 10.8603 8.03735 10.5927 7.86862L9.52592 9.56036C10.1504 9.95413 10.8585 10.1364 11.6147 10.1364V8.13636ZM10.5951 7.87016C10.3182 7.69442 10.0911 7.44511 9.91596 7.09091L8.1231 7.97727C8.44799 8.63443 8.91404 9.17206 9.52348 9.55882L10.5951 7.87016ZM9.91796 7.09497C9.74976 6.75084 9.64879 6.31556 9.64879 5.76136H7.64879C7.64879 6.55944 7.79499 7.30598 8.1211 7.97321L9.91796 7.09497ZM9.64879 5.76136C9.64879 5.20024 9.75022 4.7601 9.91893 4.41299L8.12014 3.53872C7.79453 4.20865 7.64879 4.95885 7.64879 5.76136H9.64879ZM9.91695 4.41704C10.0925 4.05997 10.3196 3.81037 10.5951 3.63552L9.52348 1.94686C8.91264 2.33451 8.44657 2.87469 8.12212 3.53466L9.91695 4.41704ZM10.5927 3.63707C10.8603 3.46833 11.1891 3.36932 11.6147 3.36932V1.36932C10.8585 1.36932 10.1504 1.55156 9.52592 1.94532L10.5927 3.63707ZM11.6147 3.36932C12.0404 3.36932 12.3666 3.46836 12.63 3.63552L13.7017 1.94686C13.0787 1.55153 12.3708 1.36932 11.6147 1.36932V3.36932ZM12.6325 3.63707C12.9093 3.81163 13.1344 4.05955 13.3062 4.41299L15.105 3.53872C14.7825 2.87511 14.3144 2.33326 13.6992 1.94532L12.6325 3.63707ZM13.3082 4.41704C13.4784 4.76315 13.5806 5.20181 13.5806 5.76136H15.5806C15.5806 4.95728 15.4329 4.2056 15.103 3.53466L13.3082 4.41704ZM13.5806 5.76136C13.5806 6.31398 13.4788 6.74777 13.3092 7.09091L15.102 7.97727C15.4324 7.30905 15.5806 6.56102 15.5806 5.76136H13.5806ZM13.3072 7.09497C13.1358 7.44553 12.9107 7.69316 12.6325 7.86862L13.6992 9.56036C14.313 9.17332 14.7811 8.63402 15.104 7.97321L13.3072 7.09497ZM12.63 7.87016C12.3666 8.03732 12.0404 8.13636 11.6147 8.13636V10.1364C12.3708 10.1364 13.0787 9.95415 13.7017 9.55882L12.63 7.87016ZM11.6147 9.23295C12.2397 9.23295 12.8426 9.0695 13.3445 8.67089L12.1008 7.10467C12.0232 7.16629 11.8874 7.23295 11.6147 7.23295V9.23295ZM13.3445 8.67089C13.7888 8.3181 14.1062 7.85987 14.3036 7.32812L12.4286 6.6321C12.3476 6.85035 12.2361 6.99724 12.1008 7.10467L13.3445 8.67089ZM14.3036 7.32812C14.4879 6.83177 14.5749 6.30652 14.5749 5.76136H12.5749C12.5749 6.09121 12.5228 6.37846 12.4286 6.63211L14.3036 7.32812ZM14.5749 5.76136C14.5749 5.21612 14.4878 4.69039 14.3045 4.19265L12.4278 4.88406C12.5228 5.142 12.5749 5.43161 12.5749 5.76136H14.5749ZM14.3045 4.19265C14.108 3.65928 13.792 3.19874 13.3492 2.84278L12.0961 4.40153C12.2329 4.51149 12.3459 4.66174 12.4278 4.88406L14.3045 4.19265ZM13.3492 2.84278C12.8471 2.43915 12.2425 2.27273 11.6147 2.27273V4.27273C11.8846 4.27273 12.0186 4.33926 12.0961 4.40153L13.3492 2.84278ZM11.6147 2.27273C10.9869 2.27273 10.3823 2.43915 9.88019 2.84278L11.1333 4.40153C11.2108 4.33926 11.3448 4.27273 11.6147 4.27273V2.27273ZM9.88019 2.84278C9.43742 3.19874 9.12144 3.65928 8.92494 4.19265L10.8016 4.88406C10.8835 4.66174 10.9965 4.51149 11.1333 4.40153L9.88019 2.84278ZM8.92494 4.19265C8.74156 4.69039 8.65447 5.21612 8.65447 5.76136H10.6545C10.6545 5.43161 10.7066 5.142 10.8016 4.88406L8.92494 4.19265ZM8.65447 5.76136C8.65447 6.30652 8.74154 6.83177 8.92579 7.32812L10.8008 6.63211C10.7066 6.37846 10.6545 6.09121 10.6545 5.76136H8.65447ZM8.92579 7.32812C9.12318 7.85987 9.44061 8.3181 9.88487 8.67089L11.1286 7.10467C10.9933 6.99724 10.8818 6.85035 10.8008 6.63211L8.92579 7.32812ZM9.88486 8.67089C10.3868 9.0695 10.9897 9.23295 11.6147 9.23295V7.23295C11.342 7.23295 11.2062 7.16629 11.1286 7.10467L9.88486 8.67089ZM21.2337 2.45455L22.1716 2.80138L22.6696 1.45455H21.2337V2.45455ZM18.8132 9V10H19.5096L19.7511 9.34684L18.8132 9ZM17.7905 9L16.8526 9.34684L17.0941 10H17.7905V9ZM15.37 2.45455V1.45455H13.9341L14.4321 2.80138L15.37 2.45455ZM16.4609 2.45455L17.4059 2.12722L17.1728 1.45455H16.4609V2.45455ZM18.2678 7.67045L17.3228 7.99778L17.5559 8.67045H18.2678V7.67045ZM18.3359 7.67045V8.67045H19.0478L19.2809 7.99778L18.3359 7.67045ZM20.1428 2.45455V1.45455H19.4309L19.1978 2.12722L20.1428 2.45455ZM20.2957 2.10771L17.8753 8.65316L19.7511 9.34684L22.1716 2.80138L20.2957 2.10771ZM18.8132 8H17.7905V10H18.8132V8ZM18.7284 8.65316L16.308 2.10771L14.4321 2.80138L16.8526 9.34684L18.7284 8.65316ZM15.37 3.45455H16.4609V1.45455H15.37V3.45455ZM15.516 2.78187L17.3228 7.99778L19.2127 7.34313L17.4059 2.12722L15.516 2.78187ZM18.2678 8.67045H18.3359V6.67045H18.2678V8.67045ZM19.2809 7.99778L21.0877 2.78187L19.1978 2.12722L17.391 7.34313L19.2809 7.99778ZM20.1428 3.45455H21.2337V1.45455H20.1428V3.45455ZM23.1587 8.91903L22.7329 9.82387L22.7392 9.82677L23.1587 8.91903ZM22.3533 8.23295L21.5189 8.78402L21.5213 8.78765L22.3533 8.23295ZM22.2766 6.23011L23.1212 6.76566L23.1241 6.76103L22.2766 6.23011ZM23.6871 5.37784L23.9011 6.3547L23.908 6.35315L23.6871 5.37784ZM24.5948 5.21591L24.4673 4.22407L24.4651 4.22436L24.5948 5.21591ZM25.5621 5.10085L25.665 6.09559L25.6751 6.09446L25.5621 5.10085ZM26.1076 4.96023L25.6183 4.08803L25.6091 4.09332L26.1076 4.96023ZM25.9371 3.60511L25.2213 4.30345L25.2257 4.30787L25.9371 3.60511ZM23.7724 3.57102L24.3829 4.36303L24.3829 4.36303L23.7724 3.57102ZM23.1971 4.24432L22.8608 5.18606L23.7199 5.4929L24.1041 4.66543L23.1971 4.24432ZM22.2425 3.90341L21.3234 3.50949L20.9043 4.48733L21.9062 4.84515L22.2425 3.90341ZM22.9244 2.97443L23.5394 3.76293L23.5405 3.7621L22.9244 2.97443ZM23.8619 2.50568L24.114 3.4734L24.1195 3.47192L23.8619 2.50568ZM25.592 2.44602L25.4077 3.42896L25.4193 3.43101L25.592 2.44602ZM26.3888 2.74858L25.8743 3.60608L25.8785 3.60856L26.3888 2.74858ZM27.0323 3.44318L26.1563 3.92541L26.1563 3.92541L27.0323 3.44318ZM27.288 9V10H28.288V9H27.288ZM26.2823 9H25.2823V10H26.2823V9ZM26.2823 8.11364H27.2823V7.11364H26.2823V8.11364ZM26.2312 8.11364V7.11364H25.6019L25.3297 7.6809L26.2312 8.11364ZM25.8903 8.5696L26.6036 9.27042L26.6036 9.27042L25.8903 8.5696ZM25.2553 8.98295L24.8602 8.06432L25.2553 8.98295ZM25.4471 8.01562L24.9538 7.14572L24.95 7.14794L25.4471 8.01562ZM26.0692 7.41051L25.2022 6.91221L25.1979 6.91977L26.0692 7.41051ZM26.2823 5.71023H27.2823V2.94817L25.5141 5.07004L26.2823 5.71023ZM26.0011 5.85085L26.2707 6.8139L26.2832 6.81022L26.0011 5.85085ZM25.5067 5.95739L25.6588 6.94583L25.6711 6.94378L25.5067 5.95739ZM24.9656 6.03409L25.0796 7.02767L25.0935 7.02587L24.9656 6.03409ZM24.5437 6.08523L24.673 7.07683L24.6741 7.07668L24.5437 6.08523ZM23.8107 6.25142L24.1234 7.20133L24.1305 7.19891L23.8107 6.25142ZM23.2653 6.58807L22.531 5.90921L22.5305 5.90979L23.2653 6.58807ZM23.4485 7.9858L22.8793 8.80805L22.8897 8.81506L23.4485 7.9858ZM24.288 8.15341C24.0015 8.15341 23.7706 8.10017 23.5783 8.0113L22.7392 9.82677C23.223 10.0504 23.7449 10.1534 24.288 10.1534V8.15341ZM23.5845 8.01422C23.404 7.92924 23.2789 7.81848 23.1854 7.67825L21.5213 8.78765C21.8255 9.24402 22.2374 9.59065 22.7329 9.82385L23.5845 8.01422ZM23.1878 7.68189C23.1152 7.57199 23.055 7.40835 23.055 7.14205H21.055C21.055 7.72801 21.1937 8.29165 21.5189 8.78402L23.1878 7.68189ZM23.055 7.14205C23.055 6.89067 23.1053 6.79058 23.1211 6.76566L21.4321 5.69457C21.1525 6.13555 21.055 6.64342 21.055 7.14205H23.055ZM23.1241 6.76103C23.1791 6.67322 23.2477 6.60813 23.3443 6.55596L22.3937 4.79632C21.9959 5.01119 21.6696 5.31542 21.4292 5.6992L23.1241 6.76103ZM23.3443 6.55596C23.5025 6.47049 23.6862 6.40177 23.9011 6.35468L23.4732 4.401C23.0915 4.4846 22.7298 4.61473 22.3937 4.79632L23.3443 6.55596ZM23.908 6.35315C24.1792 6.29174 24.4514 6.2432 24.7246 6.20746L24.4651 4.22436C24.1303 4.26817 23.7973 4.32758 23.4663 4.40253L23.908 6.35315ZM24.7223 6.20774C25.1162 6.15711 25.4295 6.11991 25.665 6.09554L25.4592 4.10616C25.2005 4.13293 24.8689 4.17244 24.4673 4.22407L24.7223 6.20774ZM25.6751 6.09446C25.9589 6.0622 26.3091 5.99787 26.6061 5.82713L25.6091 4.09332C25.6348 4.07853 25.6516 4.07202 25.6545 4.07093C25.6578 4.06969 25.6525 4.07189 25.6364 4.07605C25.6025 4.08477 25.5426 4.09664 25.4492 4.10725L25.6751 6.09446ZM26.5968 5.83237C27.1008 5.54966 27.2823 5.052 27.2823 4.61932H25.2823C25.2823 4.58311 25.2887 4.48699 25.3487 4.3699C25.4136 4.24335 25.5133 4.147 25.6183 4.08808L26.5968 5.83237ZM27.2823 4.61932V4.58523H25.2823V4.61932H27.2823ZM27.2823 4.58523C27.2823 3.97976 27.112 3.37153 26.6486 2.90236L25.2257 4.30787C25.2312 4.31339 25.2414 4.32457 25.2528 4.35703C25.2657 4.39362 25.2823 4.46473 25.2823 4.58523H27.2823ZM26.6529 2.90679C26.1698 2.41158 25.5188 2.25568 24.9016 2.25568V4.25568C25.2106 4.25568 25.2499 4.33274 25.2214 4.30344L26.6529 2.90679ZM24.9016 2.25568C24.286 2.25568 23.6669 2.38973 23.1619 2.77901L24.3829 4.36303C24.4233 4.33187 24.557 4.25568 24.9016 4.25568V2.25568ZM23.1619 2.77901C22.7999 3.05806 22.4861 3.40097 22.2901 3.82321L24.1041 4.66543C24.1296 4.61039 24.1994 4.50444 24.3829 4.36303L23.1619 2.77901ZM23.5334 3.30258L22.5789 2.96167L21.9062 4.84515L22.8608 5.18606L23.5334 3.30258ZM23.1617 4.29733C23.279 4.02361 23.4127 3.86178 23.5394 3.76293L22.3093 2.18593C21.8679 2.53026 21.547 2.98776 21.3234 3.50949L23.1617 4.29733ZM23.5405 3.7621C23.7243 3.61827 23.9139 3.5255 24.114 3.47339L23.6098 1.53798C23.1337 1.662 22.6982 1.88173 22.3083 2.18676L23.5405 3.7621ZM24.1195 3.47192C24.3823 3.40185 24.6309 3.36932 24.8675 3.36932V1.36932C24.4451 1.36932 24.0233 1.4277 23.6042 1.53945L24.1195 3.47192ZM24.8675 3.36932C25 3.36932 25.1777 3.38577 25.4077 3.42889L25.7763 1.46315C25.4608 1.404 25.1556 1.36932 24.8675 1.36932V3.36932ZM25.4193 3.43101C25.5663 3.45677 25.7169 3.51158 25.8744 3.60607L26.9033 1.89109C26.5495 1.67876 26.1687 1.53186 25.7646 1.46103L25.4193 3.43101ZM25.8785 3.60856C25.9585 3.65603 26.0566 3.74431 26.1563 3.92541L27.9084 2.96095C27.6671 2.52274 27.3362 2.14794 26.8992 1.8886L25.8785 3.60856ZM26.1563 3.92541C26.216 4.03397 26.288 4.26248 26.288 4.6875H28.288C28.288 4.07275 28.1895 3.47171 27.9084 2.96095L26.1563 3.92541ZM26.288 4.6875V9H28.288V4.6875H26.288ZM27.288 8H26.2823V10H27.288V8ZM27.2823 9V8.11364H25.2823V9H27.2823ZM26.2823 7.11364H26.2312V9.11364H26.2823V7.11364ZM25.3297 7.6809C25.325 7.69064 25.2899 7.75376 25.1769 7.86878L26.6036 9.27042C26.8088 9.06158 27.001 8.82073 27.1327 8.54637L25.3297 7.6809ZM25.1769 7.86878C25.1295 7.91705 25.0358 7.9888 24.8602 8.06432L25.6504 9.90159C26.0033 9.74983 26.3328 9.54602 26.6036 9.27042L25.1769 7.86878ZM24.8602 8.06432C24.7542 8.10993 24.5746 8.15341 24.288 8.15341V10.1534C24.7628 10.1534 25.2281 10.0833 25.6504 9.90159L24.8602 8.06432ZM24.4414 9.25C24.968 9.25 25.485 9.14638 25.9442 8.88331L24.95 7.14794C24.8637 7.19737 24.7102 7.25 24.4414 7.25V9.25ZM25.9403 8.88552C26.3551 8.65035 26.702 8.32478 26.9406 7.90125L25.1979 6.91977C25.1581 6.99056 25.0902 7.0684 24.9538 7.14573L25.9403 8.88552ZM26.9363 7.9088C27.1613 7.51717 27.2823 7.08633 27.2823 6.63068H25.2823C25.2823 6.72048 25.2613 6.80954 25.2022 6.91223L26.9363 7.9088ZM27.2823 6.63068V5.71023H25.2823V6.63068H27.2823ZM25.5141 5.07004C25.5694 5.0037 25.6226 4.96058 25.6571 4.93577C25.6924 4.91045 25.7198 4.89581 25.7328 4.88931C25.7565 4.8775 25.757 4.88027 25.7189 4.89149L26.2832 6.81022C26.39 6.77882 26.5099 6.73685 26.6273 6.67816C26.7344 6.62461 26.9048 6.52532 27.0505 6.35041L25.5141 5.07004ZM25.7314 4.88789C25.6322 4.91567 25.5039 4.94407 25.3423 4.97099L25.6711 6.94378C25.8846 6.90821 26.0858 6.86558 26.2707 6.81382L25.7314 4.88789ZM25.3547 4.96901C25.1776 4.99625 25.0053 5.02068 24.8376 5.04231L25.0935 7.02587C25.2781 7.00205 25.4665 6.97534 25.6588 6.94576L25.3547 4.96901ZM24.8515 5.04061C24.6756 5.0608 24.5289 5.07855 24.4132 5.09377L24.6741 7.07668C24.7744 7.06349 24.9089 7.04715 25.0796 7.02757L24.8515 5.04061ZM24.4143 5.09363C24.0945 5.13535 23.7858 5.2044 23.4909 5.30393L24.1305 7.19891C24.2902 7.14503 24.4701 7.10329 24.673 7.07683L24.4143 5.09363ZM23.4981 5.30154C23.1372 5.42032 22.802 5.61611 22.531 5.90921L23.9995 7.26692C24.007 7.25889 24.0354 7.23024 24.1233 7.2013L23.4981 5.30154ZM22.5305 5.90979C22.1809 6.28845 22.0607 6.757 22.0607 7.19318H24.0607C24.0607 7.15304 24.0662 7.14973 24.0592 7.17037C24.0556 7.18099 24.0493 7.19628 24.0388 7.21416C24.0282 7.2322 24.0152 7.24999 24.0001 7.26635L22.5305 5.90979ZM22.0607 7.19318C22.0607 7.8281 22.3177 8.41919 22.8793 8.80799L24.0177 7.1636C24.0161 7.16251 24.0222 7.16654 24.0314 7.17708C24.0409 7.18789 24.0495 7.2008 24.0559 7.21394C24.0622 7.22678 24.0637 7.23437 24.0635 7.23315C24.0631 7.23142 24.0607 7.21904 24.0607 7.19318H22.0607ZM22.8897 8.81506C23.3558 9.12917 23.8955 9.25 24.4414 9.25V7.25C24.1862 7.25 24.064 7.19469 24.0074 7.15653L22.8897 8.81506ZM30.3168 0.272727H31.3168V-0.727273H30.3168V0.272727ZM30.3168 9V10H31.3168V9H30.3168ZM29.2599 9H28.2599V10H29.2599V9ZM29.2599 0.272727V-0.727273H28.2599V0.272727H29.2599ZM29.3168 0.272727V9H31.3168V0.272727H29.3168ZM30.3168 8H29.2599V10H30.3168V8ZM30.2599 9V0.272727H28.2599V9H30.2599ZM29.2599 1.27273H30.3168V-0.727273H29.2599V1.27273ZM32.2994 9H31.2994V10H32.2994V9ZM32.2994 2.45455V1.45455H31.2994V2.45455H32.2994ZM33.271 2.45455H34.271V1.45455H33.271V2.45455ZM33.271 3.47727H32.271V4.47727H33.271V3.47727ZM33.3562 3.47727V4.47727H34.0394L34.2878 3.84082L33.3562 3.47727ZM34.0167 2.66335L34.5531 3.50736L34.5586 3.50376L34.0167 2.66335ZM36.19 2.66335L35.6259 3.48911L35.6353 3.4954L36.19 2.66335ZM36.8675 3.47727L35.9602 3.89773L36.2288 4.47727H36.8675V3.47727ZM36.9357 3.47727V4.47727H37.5561L37.8317 3.92147L36.9357 3.47727ZM37.69 2.67188L38.2002 3.53195L38.2055 3.52873L37.69 2.67188ZM40.332 2.91903L39.6304 3.63156L39.6332 3.63428L40.332 2.91903ZM40.8903 9V10H41.8903V9H40.8903ZM39.8846 9H38.8846V10H39.8846V9ZM39.4883 3.58381L38.8708 4.37042L38.8708 4.37042L39.4883 3.58381ZM37.4854 3.69034L38.2223 4.36642L38.2257 4.36264L37.4854 3.69034ZM37.1062 9V10H38.1062V9H37.1062ZM36.0835 9H35.0835V10H36.0835V9ZM35.7212 3.6179L35.0314 4.34185L35.0359 4.3461L35.7212 3.6179ZM34.055 3.48153L33.5327 2.62877L33.5279 2.63173L34.055 3.48153ZM33.5096 4.06108L32.6383 3.57034L32.6364 3.57371L33.5096 4.06108ZM33.305 9V10H34.305V9H33.305ZM33.2994 9V2.45455H31.2994V9H33.2994ZM32.2994 3.45455H33.271V1.45455H32.2994V3.45455ZM32.271 2.45455V3.47727H34.271V2.45455H32.271ZM33.271 4.47727H33.3562V2.47727H33.271V4.47727ZM34.2878 3.84082C34.3502 3.68071 34.4363 3.58152 34.5531 3.50734L33.4803 1.81937C32.9891 2.13155 32.6348 2.57498 32.4246 3.11373L34.2878 3.84082ZM34.5586 3.50376C34.6741 3.42932 34.8431 3.36932 35.1119 3.36932V1.36932C34.5283 1.36932 33.9673 1.50534 33.4747 1.82294L34.5586 3.50376ZM35.1119 3.36932C35.3915 3.36932 35.5416 3.43146 35.6259 3.48906L36.7541 1.83764C36.2645 1.5032 35.6958 1.36932 35.1119 1.36932V3.36932ZM35.6353 3.4954C35.756 3.57586 35.8673 3.69711 35.9602 3.89773L37.7749 3.05681C37.544 2.55857 37.2035 2.13721 36.7447 1.8313L35.6353 3.4954ZM36.8675 4.47727H36.9357V2.47727H36.8675V4.47727ZM37.8317 3.92147C37.9106 3.76227 38.0252 3.63574 38.2002 3.53193L37.1798 1.81182C36.6843 2.10574 36.2961 2.51614 36.0398 3.03307L37.8317 3.92147ZM38.2055 3.52873C38.3568 3.43773 38.5727 3.36932 38.896 3.36932V1.36932C38.2817 1.36932 37.6936 1.50261 37.1744 1.81502L38.2055 3.52873ZM38.896 3.36932C39.2531 3.36932 39.4685 3.47216 39.6304 3.63156L41.0337 2.20651C40.4512 1.63296 39.7093 1.36932 38.896 1.36932V3.36932ZM39.6332 3.63428C39.7369 3.73562 39.8903 3.9899 39.8903 4.61932H41.8903C41.8903 3.70896 41.6715 2.82972 41.0309 2.20378L39.6332 3.63428ZM39.8903 4.61932V9H41.8903V4.61932H39.8903ZM40.8903 8H39.8846V10H40.8903V8ZM40.8846 9V4.61932H38.8846V9H40.8846ZM40.8846 4.61932C40.8846 3.96993 40.7038 3.26668 40.1057 2.79719L38.8708 4.37042C38.8465 4.35132 38.8435 4.33466 38.8516 4.35566C38.8628 4.38509 38.8846 4.46449 38.8846 4.61932H40.8846ZM40.1057 2.7972C39.6534 2.44214 39.1211 2.27273 38.555 2.27273V4.27273C38.7049 4.27273 38.7948 4.31071 38.8708 4.37042L40.1057 2.7972ZM38.555 2.27273C37.881 2.27273 37.229 2.48532 36.7452 3.01804L38.2257 4.36264C38.2476 4.33854 38.3086 4.27273 38.555 4.27273V2.27273ZM36.7486 3.01427C36.3039 3.4989 36.1062 4.10049 36.1062 4.73864H38.1062C38.1062 4.53019 38.1613 4.43292 38.2223 4.36641L36.7486 3.01427ZM36.1062 4.73864V9H38.1062V4.73864H36.1062ZM37.1062 8H36.0835V10H37.1062V8ZM37.0835 9V4.51705H35.0835V9H37.0835ZM37.0835 4.51705C37.0835 3.90635 36.8744 3.33001 36.4066 2.8897L35.0359 4.3461C35.051 4.36033 35.0835 4.38343 35.0835 4.51705H37.0835ZM36.4111 2.89396C35.9571 2.46135 35.3864 2.27273 34.788 2.27273V4.27273C34.951 4.27273 35.0024 4.31422 35.0314 4.34183L36.4111 2.89396ZM34.788 2.27273C34.3385 2.27273 33.9139 2.39529 33.5327 2.62878L34.5774 4.33429C34.6507 4.28937 34.7148 4.27273 34.788 4.27273V2.27273ZM33.5279 2.63173C33.1498 2.86626 32.8538 3.18761 32.6383 3.57034L34.3809 4.55182C34.4437 4.44023 34.5114 4.37522 34.5821 4.33134L33.5279 2.63173ZM32.6364 3.57371C32.4053 3.98775 32.305 4.44289 32.305 4.90909H34.305C34.305 4.73325 34.3411 4.62305 34.3828 4.54845L32.6364 3.57371ZM32.305 4.90909V9H34.305V4.90909H32.305ZM33.305 8H32.2994V10H33.305V8ZM42.729 11.4545H41.729V12.4545H42.729V11.4545ZM42.729 2.45455V1.45455H41.729V2.45455H42.729ZM43.7006 2.45455H44.7006V1.45455H43.7006V2.45455ZM43.7006 3.49432H42.7006V4.49432H43.7006V3.49432ZM43.82 3.49432V4.49432H44.3626L44.6584 4.03931L43.82 3.49432ZM44.1268 3.05966L43.3252 2.46169L43.3237 2.46381L44.1268 3.05966ZM44.6978 2.58239L45.1885 3.4537L45.1918 3.45184L44.6978 2.58239ZM47.1694 2.78267L47.7176 1.9463L47.7176 1.9463L47.1694 2.78267ZM48.1538 3.95455L49.0601 3.53194L49.0601 3.53194L48.1538 3.95455ZM48.1538 7.54688L49.0601 7.96948L49.061 7.96754L48.1538 7.54688ZM47.1737 8.72301L47.7244 9.55768L47.7284 9.55506L47.1737 8.72301ZM44.7191 8.92756L44.2293 9.79943L44.2368 9.80356L44.7191 8.92756ZM44.1353 8.44602L43.3353 9.04604L43.3399 9.05207L44.1353 8.44602ZM43.82 7.99432L44.6702 7.46796L44.377 6.99432H43.82V7.99432ZM43.7347 7.99432V6.99432H42.7347V7.99432H43.7347ZM43.7347 11.4545V12.4545H44.7347V11.4545H43.7347ZM43.935 7.03551L43.0013 7.39355L43.0022 7.39591L43.935 7.03551ZM44.57 7.91761L43.9622 8.71176L43.9674 8.71565L44.57 7.91761ZM46.6452 7.90057L47.2641 8.68606L47.2651 8.68525L46.6452 7.90057ZM47.2844 6.99716L46.3498 6.64145L46.3484 6.64526L47.2844 6.99716ZM47.2887 4.48295L46.352 4.83331L46.3554 4.84193L47.2887 4.48295ZM46.6538 3.60085L46.0398 4.39025L46.0487 4.39701L46.6538 3.60085ZM44.5614 3.58381L45.1535 4.38971L45.1588 4.38577L44.5614 3.58381ZM43.9308 4.4446L44.8632 4.806L44.8641 4.80358L43.9308 4.4446ZM43.729 11.4545V2.45455H41.729V11.4545H43.729ZM42.729 3.45455H43.7006V1.45455H42.729V3.45455ZM42.7006 2.45455V3.49432H44.7006V2.45455H42.7006ZM43.7006 4.49432H43.82V2.49432H43.7006V4.49432ZM44.6584 4.03931C44.7163 3.9502 44.805 3.82382 44.9299 3.65551L43.3237 2.46381C43.1872 2.64777 43.0713 2.81116 42.9815 2.94933L44.6584 4.03931ZM44.9283 3.65762C44.9591 3.6163 45.0312 3.5423 45.1885 3.45369L44.2071 1.71108C43.8701 1.90088 43.5615 2.14506 43.3253 2.4617L44.9283 3.65762ZM45.1918 3.45184C45.2357 3.42689 45.3815 3.36932 45.712 3.36932V1.36932C45.1902 1.36932 44.6599 1.45379 44.2038 1.71293L45.1918 3.45184ZM45.712 3.36932C46.0879 3.36932 46.3793 3.46045 46.6212 3.61904L47.7176 1.9463C47.1186 1.55375 46.4384 1.36932 45.712 1.36932V3.36932ZM46.6212 3.61904C46.8694 3.78171 47.0813 4.02091 47.2475 4.37715L49.0601 3.53194C48.7546 2.87681 48.3103 2.33477 47.7176 1.9463L46.6212 3.61904ZM47.2475 4.37715C47.4089 4.72344 47.5075 5.16972 47.5075 5.74432H49.5075C49.5075 4.94392 49.3702 4.19701 49.0601 3.53194L47.2475 4.37715ZM47.5075 5.74432C47.5075 6.32574 47.4085 6.77688 47.2465 7.12621L49.061 7.96754C49.3706 7.29983 49.5075 6.54926 49.5075 5.74432H47.5075ZM47.2475 7.12427C47.0802 7.48291 46.8674 7.72531 46.619 7.89096L47.7284 9.55506C48.3151 9.1639 48.7557 8.6222 49.0601 7.96948L47.2475 7.12427ZM46.6229 7.88835C46.3834 8.04636 46.0971 8.13636 45.729 8.13636V10.1364C46.4519 10.1364 47.1286 9.9508 47.7244 9.55767L46.6229 7.88835ZM45.729 8.13636C45.4054 8.13636 45.2543 8.08066 45.2014 8.05155L44.2368 9.80356C44.6896 10.0529 45.2118 10.1364 45.729 10.1364V8.13636ZM45.2089 8.05572C45.0421 7.962 44.9642 7.88396 44.9307 7.83998L43.3399 9.05207C43.5791 9.36604 43.8905 9.60903 44.2293 9.79939L45.2089 8.05572ZM44.9353 7.84602C44.8073 7.67539 44.7219 7.55144 44.6702 7.46796L42.9697 8.52067C43.0657 8.67584 43.1905 8.85302 43.3353 9.04602L44.9353 7.84602ZM43.82 6.99432H43.7347V8.99432H43.82V6.99432ZM42.7347 7.99432V11.4545H44.7347V7.99432H42.7347ZM43.7347 10.4545H42.729V12.4545H43.7347V10.4545ZM42.7177 5.72727C42.7177 6.31771 42.8041 6.87922 43.0013 7.39355L44.8687 6.67747C44.7762 6.43612 44.7177 6.12548 44.7177 5.72727H42.7177ZM43.0022 7.39591C43.2035 7.91695 43.5171 8.37114 43.9622 8.71174L45.1777 7.12349C45.0659 7.03795 44.9563 6.90407 44.8678 6.67511L43.0022 7.39591ZM43.9674 8.71565C44.4456 9.07678 45.0072 9.23295 45.5927 9.23295V7.23295C45.3714 7.23295 45.2511 7.1789 45.1726 7.11957L43.9674 8.71565ZM45.5927 9.23295C46.1969 9.23295 46.777 9.06988 47.2641 8.68606L46.0264 7.11508C45.951 7.17444 45.8294 7.23295 45.5927 7.23295V9.23295ZM47.2651 8.68525C47.708 8.33539 48.022 7.87712 48.2205 7.34905L46.3484 6.64526C46.2628 6.87288 46.1507 7.01688 46.0253 7.11589L47.2651 8.68525ZM48.219 7.35286C48.4129 6.84347 48.5018 6.29746 48.5018 5.72727H46.5018C46.5018 6.08891 46.4457 6.38948 46.3498 6.64145L48.219 7.35286ZM48.5018 5.72727C48.5018 5.16401 48.4147 4.6249 48.2221 4.12398L46.3554 4.84193C46.4468 5.07965 46.5018 5.37008 46.5018 5.72727H48.5018ZM48.2253 4.13261C48.0277 3.60425 47.71 3.1476 47.2588 2.80469L46.0487 4.39701C46.1657 4.48592 46.2713 4.61734 46.3521 4.83329L48.2253 4.13261ZM47.2677 2.8115C46.7784 2.43092 46.1961 2.27273 45.5927 2.27273V4.27273C45.8415 4.27273 45.9666 4.33329 46.0398 4.3902L47.2677 2.8115ZM45.5927 2.27273C45.008 2.27273 44.4444 2.42403 43.9641 2.78185L45.1588 4.38577C45.2353 4.32881 45.3592 4.27273 45.5927 4.27273V2.27273ZM43.9694 2.77792C43.5153 3.1115 43.1979 3.56437 42.9974 4.08562L44.8641 4.80358C44.9477 4.5862 45.0507 4.4652 45.1535 4.38969L43.9694 2.77792ZM42.9983 4.0832C42.8022 4.58918 42.7177 5.14402 42.7177 5.72727H44.7177C44.7177 5.33325 44.7752 5.03297 44.8632 4.806L42.9983 4.0832ZM51.1452 8.71449L50.6094 9.55882L50.6119 9.56036L51.1452 8.71449ZM50.1055 7.53409L49.207 7.97321L49.209 7.97727L50.1055 7.53409ZM50.1055 3.97585L49.208 3.53466L49.2061 3.53872L50.1055 3.97585ZM51.1452 2.79119L50.6119 1.94532L50.6094 1.94686L51.1452 2.79119ZM54.2518 2.79119L53.7159 3.63553L53.7184 3.63707L54.2518 2.79119ZM55.2915 3.97585L54.3921 4.41299L54.3941 4.41704L55.2915 3.97585ZM55.2915 7.53409L54.3951 7.09091L54.3931 7.09497L55.2915 7.53409ZM54.2518 8.71449L53.7184 7.86861L53.716 7.87016L54.2518 8.71449ZM53.8086 7.88778L53.1867 7.10467L53.1867 7.10467L53.8086 7.88778ZM54.4521 6.98011L55.3896 7.32812L55.3896 7.32812L54.4521 6.98011ZM54.4521 4.53835L55.3904 4.19265L55.3904 4.19265L54.4521 4.53835ZM53.8086 3.62216L54.4352 2.84278L54.4352 2.84278L53.8086 3.62216ZM51.5927 3.62216L50.9661 2.84278L50.9661 2.84278L51.5927 3.62216ZM50.9492 4.53835L50.0109 4.19265L50.0109 4.19265L50.9492 4.53835ZM50.9492 6.98011L50.0117 7.32812L50.0117 7.32812L50.9492 6.98011ZM51.5927 7.88778L52.2146 7.10467L52.2146 7.10467L51.5927 7.88778ZM52.7006 8.13636C52.275 8.13636 51.9462 8.03735 51.6786 7.86862L50.6119 9.56036C51.2363 9.95413 51.9444 10.1364 52.7006 10.1364V8.13636ZM51.6811 7.87016C51.4041 7.69442 51.177 7.44511 51.0019 7.09091L49.209 7.97727C49.5339 8.63443 50 9.17206 50.6094 9.55882L51.6811 7.87016ZM51.0039 7.09497C50.8357 6.75084 50.7347 6.31556 50.7347 5.76136H48.7347C48.7347 6.55944 48.8809 7.30598 49.207 7.97321L51.0039 7.09497ZM50.7347 5.76136C50.7347 5.20024 50.8362 4.7601 51.0049 4.41299L49.2061 3.53872C48.8805 4.20865 48.7347 4.95885 48.7347 5.76136H50.7347ZM51.0029 4.41704C51.1784 4.05997 51.4055 3.81037 51.6811 3.63552L50.6094 1.94686C49.9986 2.33451 49.5325 2.87469 49.2081 3.53466L51.0029 4.41704ZM51.6786 3.63707C51.9462 3.46833 52.275 3.36932 52.7006 3.36932V1.36932C51.9444 1.36932 51.2363 1.55156 50.6119 1.94532L51.6786 3.63707ZM52.7006 3.36932C53.1264 3.36932 53.4525 3.46836 53.716 3.63552L54.7876 1.94686C54.1646 1.55153 53.4567 1.36932 52.7006 1.36932V3.36932ZM53.7184 3.63707C53.9952 3.81163 54.2204 4.05955 54.3922 4.41299L56.1909 3.53872C55.8684 2.87511 55.4004 2.33326 54.7852 1.94532L53.7184 3.63707ZM54.3941 4.41704C54.5643 4.76315 54.6665 5.20181 54.6665 5.76136H56.6665C56.6665 4.95728 56.5188 4.2056 56.189 3.53466L54.3941 4.41704ZM54.6665 5.76136C54.6665 6.31398 54.5648 6.74777 54.3951 7.09091L56.188 7.97727C56.5183 7.30905 56.6665 6.56102 56.6665 5.76136H54.6665ZM54.3931 7.09497C54.2218 7.44553 53.9966 7.69316 53.7184 7.86862L54.7852 9.56036C55.399 9.17332 55.867 8.63402 56.19 7.97321L54.3931 7.09497ZM53.716 7.87016C53.4525 8.03732 53.1264 8.13636 52.7006 8.13636V10.1364C53.4567 10.1364 54.1646 9.95415 54.7876 9.55882L53.716 7.87016ZM52.7006 9.23295C53.3257 9.23295 53.9285 9.0695 54.4305 8.67089L53.1867 7.10467C53.1091 7.16629 52.9733 7.23295 52.7006 7.23295V9.23295ZM54.4305 8.67089C54.8747 8.3181 55.1922 7.85987 55.3896 7.32812L53.5146 6.6321C53.4336 6.85035 53.322 6.99724 53.1867 7.10467L54.4305 8.67089ZM55.3896 7.32812C55.5738 6.83177 55.6609 6.30652 55.6609 5.76136H53.6609C53.6609 6.09121 53.6087 6.37846 53.5146 6.63211L55.3896 7.32812ZM55.6609 5.76136C55.6609 5.21612 55.5738 4.69039 55.3904 4.19265L53.5137 4.88406C53.6087 5.142 53.6609 5.43161 53.6609 5.76136H55.6609ZM55.3904 4.19265C55.1939 3.65928 54.8779 3.19874 54.4352 2.84278L53.182 4.40153C53.3188 4.51149 53.4318 4.66174 53.5137 4.88406L55.3904 4.19265ZM54.4352 2.84278C53.9331 2.43915 53.3285 2.27273 52.7006 2.27273V4.27273C52.9705 4.27273 53.1046 4.33926 53.182 4.40153L54.4352 2.84278ZM52.7006 2.27273C52.0728 2.27273 51.4682 2.43915 50.9661 2.84278L52.2192 4.40153C52.2967 4.33926 52.4308 4.27273 52.7006 4.27273V2.27273ZM50.9661 2.84278C50.5234 3.19874 50.2074 3.65928 50.0109 4.19265L51.8876 4.88406C51.9695 4.66174 52.0825 4.51149 52.2192 4.40153L50.9661 2.84278ZM50.0109 4.19265C49.8275 4.69039 49.7404 5.21612 49.7404 5.76136H51.7404C51.7404 5.43161 51.7925 5.142 51.8876 4.88406L50.0109 4.19265ZM49.7404 5.76136C49.7404 6.30652 49.8275 6.83177 50.0117 7.32812L51.8867 6.63211C51.7926 6.37846 51.7404 6.09121 51.7404 5.76136H49.7404ZM50.0117 7.32812C50.2091 7.85987 50.5265 8.3181 50.9708 8.67089L52.2146 7.10467C52.0793 6.99724 51.9677 6.85035 51.8867 6.63211L50.0117 7.32812ZM50.9708 8.67089C51.4728 9.0695 52.0756 9.23295 52.7006 9.23295V7.23295C52.4279 7.23295 52.2922 7.16629 52.2146 7.10467L50.9708 8.67089ZM57.2017 9H56.2017V10H57.2017V9ZM57.2017 2.45455V1.45455H56.2017V2.45455H57.2017ZM58.1733 2.45455H59.1733V1.45455H58.1733V2.45455ZM58.1733 3.44318H57.1733V4.44318H58.1733V3.44318ZM58.2415 3.44318V4.44318H58.9388L59.1798 3.78889L58.2415 3.44318ZM58.8892 2.65483L58.3469 1.81464L58.3469 1.81465L58.8892 2.65483ZM60.4744 2.36932H61.4744V1.46433L60.5739 1.37428L60.4744 2.36932ZM60.4744 3.39205L60.2319 4.36219L61.4744 4.67282V3.39205H60.4744ZM60.2401 3.35369L60.0757 4.34009L60.0887 4.34227L60.1019 4.3441L60.2401 3.35369ZM59.0085 3.52415L59.4759 4.40819L59.4796 4.40622L59.0085 3.52415ZM58.4205 4.0696L57.5713 3.54146L57.5695 3.54433L58.4205 4.0696ZM58.2074 9V10H59.2074V9H58.2074ZM58.2017 9V2.45455H56.2017V9H58.2017ZM57.2017 3.45455H58.1733V1.45455H57.2017V3.45455ZM57.1733 2.45455V3.44318H59.1733V2.45455H57.1733ZM58.1733 4.44318H58.2415V2.44318H58.1733V4.44318ZM59.1798 3.78889C59.2183 3.68457 59.2861 3.58886 59.4315 3.49501L58.3469 1.81465C57.8673 2.12421 57.5033 2.55407 57.3031 3.09748L59.1798 3.78889ZM59.4315 3.49501C59.5734 3.4034 59.7354 3.35227 59.946 3.35227V1.35227C59.3725 1.35227 58.83 1.50285 58.3469 1.81464L59.4315 3.49501ZM59.946 3.35227C60.0083 3.35227 60.0914 3.35349 60.1974 3.35621L60.2486 1.35686C60.1331 1.3539 60.0315 1.35227 59.946 1.35227V3.35227ZM60.1974 3.35621C60.3018 3.35888 60.3559 3.36245 60.3749 3.36436L60.5739 1.37428C60.4793 1.36482 60.3658 1.35987 60.2486 1.35686L60.1974 3.35621ZM59.4744 2.36932V3.39205H61.4744V2.36932H59.4744ZM60.717 2.4219C60.6208 2.39786 60.4855 2.37825 60.3783 2.36329L60.1019 4.3441C60.1589 4.35206 60.2005 4.35831 60.2288 4.36294C60.2429 4.36525 60.2508 4.36669 60.2541 4.3673C60.2593 4.3683 60.2497 4.36664 60.2319 4.36219L60.717 2.4219ZM60.4045 2.3673C60.2255 2.33748 60.0438 2.32386 59.8608 2.32386V4.32386C59.9448 4.32386 60.0159 4.33013 60.0757 4.34009L60.4045 2.3673ZM59.8608 2.32386C59.3987 2.32386 58.9494 2.42203 58.5374 2.64207L59.4796 4.40622C59.5676 4.35922 59.6865 4.32386 59.8608 4.32386V2.32386ZM58.5411 2.64011C58.1406 2.85188 57.8115 3.15519 57.5713 3.54147L59.2696 4.59774C59.3191 4.5181 59.3822 4.45777 59.4759 4.40818L58.5411 2.64011ZM57.5695 3.54433C57.3211 3.94679 57.2074 4.39475 57.2074 4.85795H59.2074C59.2074 4.73025 59.2357 4.65264 59.2714 4.59487L57.5695 3.54433ZM57.2074 4.85795V9H59.2074V4.85795H57.2074ZM58.2074 8H57.2017V10H58.2074V8ZM64.9233 2.45455H65.9233V1.45455H64.9233V2.45455ZM64.9233 3.30682V4.30682H65.9233V3.30682H64.9233ZM61.5312 3.30682H60.5312V4.30682H61.5312V3.30682ZM61.5312 2.45455V1.45455H60.5312V2.45455H61.5312ZM62.5199 0.886364V-0.113636H61.5199V0.886364H62.5199ZM63.5256 0.886364H64.5256V-0.113636H63.5256V0.886364ZM63.6491 7.7642L62.7841 8.26592L62.7901 8.27621L62.7963 8.28636L63.6491 7.7642ZM63.973 8.04545L63.6264 8.98345L63.6385 8.98793L63.6507 8.9921L63.973 8.04545ZM64.6676 8.09659L64.8256 9.08403L64.8447 9.08097L64.8637 9.07717L64.6676 8.09659ZM64.8381 8.0625L65.8134 7.84167L65.5981 6.8907L64.642 7.08192L64.8381 8.0625ZM65.0426 8.96591L65.3937 9.90224L66.2106 9.59593L66.0179 8.74508L65.0426 8.96591ZM64.7571 9.04261L64.5522 8.06382L64.5414 8.06609L64.5306 8.06861L64.7571 9.04261ZM63.4574 8.90199L63.045 9.81302L63.0486 9.81462L63.4574 8.90199ZM62.7841 8.34375L61.9666 8.91972L61.971 8.92586L62.7841 8.34375ZM63.9233 2.45455V3.30682H65.9233V2.45455H63.9233ZM64.9233 2.30682H61.5312V4.30682H64.9233V2.30682ZM62.5312 3.30682V2.45455H60.5312V3.30682H62.5312ZM61.5312 3.45455H64.9233V1.45455H61.5312V3.45455ZM62.5199 1.88636H63.5256V-0.113636H62.5199V1.88636ZM62.5256 0.886364V7.125H64.5256V0.886364H62.5256ZM62.5256 7.125C62.5256 7.473 62.5703 7.89719 62.7841 8.26592L64.5142 7.26249C64.5438 7.31363 64.5441 7.33802 64.5383 7.30805C64.5328 7.2798 64.5256 7.22166 64.5256 7.125H62.5256ZM62.7963 8.28636C62.9778 8.58283 63.2502 8.84444 63.6264 8.98345L64.3197 7.10746C64.3705 7.12626 64.415 7.15374 64.4497 7.18389C64.483 7.21282 64.4986 7.23653 64.502 7.24205L62.7963 8.28636ZM63.6507 8.9921C63.8929 9.07453 64.1428 9.11364 64.3949 9.11364V7.11364C64.3515 7.11364 64.3202 7.10728 64.2953 7.0988L63.6507 8.9921ZM64.3949 9.11364C64.5336 9.11364 64.6824 9.10695 64.8256 9.08403L64.5096 7.10915C64.5128 7.10864 64.5052 7.10998 64.4838 7.11132C64.463 7.11262 64.4337 7.11364 64.3949 7.11364V9.11364ZM64.8637 9.07717C64.9348 9.06297 64.9916 9.0516 65.0342 9.04308L64.642 7.08192C64.5993 7.09044 64.5425 7.10181 64.4715 7.11601L64.8637 9.07717ZM63.8628 8.28333L64.0673 9.18673L66.0179 8.74508L65.8134 7.84167L63.8628 8.28333ZM64.6915 8.02958C64.6958 8.02795 64.6872 8.03136 64.6606 8.03851C64.6351 8.04536 64.5996 8.05392 64.5522 8.06382L64.962 10.0214C65.1041 9.99165 65.2561 9.95385 65.3937 9.90224L64.6915 8.02958ZM64.5306 8.06861C64.5095 8.07351 64.4374 8.08523 64.2926 8.08523V10.0852C64.5228 10.0852 64.7604 10.0685 64.9836 10.0166L64.5306 8.06861ZM64.2926 8.08523C64.1567 8.08523 64.0171 8.05697 63.8662 7.98936L63.0486 9.81462C63.4431 9.99132 63.8604 10.0852 64.2926 10.0852V8.08523ZM63.8697 7.99097C63.7662 7.94412 63.6779 7.87433 63.5972 7.76164L61.971 8.92586C62.2483 9.31317 62.6088 9.61554 63.045 9.81301L63.8697 7.99097ZM63.6016 7.7678C63.5705 7.72371 63.5199 7.62314 63.5199 7.39773H61.5199C61.5199 7.93368 61.6454 8.46379 61.9666 8.9197L63.6016 7.7678ZM63.5199 7.39773V0.886364H61.5199V7.39773H63.5199ZM70.9553 3.92045L71.2276 4.88266L72.2369 4.59701L71.9034 3.60249L70.9553 3.92045ZM70.0518 4.17614L69.1162 4.52919L69.4405 5.38844L70.3242 5.13834L70.0518 4.17614ZM69.8004 3.73722L68.9985 4.3347L69.0051 4.34355L69.0119 4.35225L69.8004 3.73722ZM69.3572 3.37926L69.8045 2.48483L69.8045 2.48483L69.3572 3.37926ZM67.6357 3.51562L68.2026 4.33941L68.2044 4.33813L67.6357 3.51562ZM67.5121 4.80256L66.8889 5.58462L66.8889 5.58462L67.5121 4.80256ZM68.3643 5.16477L68.1218 6.13492L68.1258 6.13591L68.3643 5.16477ZM69.3359 5.40341L69.0974 6.37455L69.1001 6.37519L69.3359 5.40341ZM70.6442 6.0554L69.9302 6.75555L69.9336 6.75901L70.6442 6.0554ZM70.7507 8.18182L69.9433 7.59179L69.9396 7.5969L70.7507 8.18182ZM66.8601 8.7017L67.4123 7.86799L67.4123 7.86799L66.8601 8.7017ZM66.0291 7.43182L65.7866 6.46168L64.8533 6.69499L65.0503 7.63657L66.0291 7.43182ZM66.9837 7.19318L67.9519 6.9433L67.704 5.98233L66.7411 6.22304L66.9837 7.19318ZM67.4993 7.9858L66.9277 8.80634L66.932 8.8093L67.4993 7.9858ZM69.6172 7.9517L70.2024 8.76261L70.2039 8.76151L69.6172 7.9517ZM69.7962 6.65625L69.0954 7.36973L69.102 7.37609L69.7962 6.65625ZM69.0632 6.30682L68.835 7.28044L68.8365 7.28078L69.0632 6.30682ZM67.9723 6.05114L67.7417 7.02419L67.7441 7.02475L67.9723 6.05114ZM66.6513 5.39062L65.917 6.06951L65.9237 6.07664L66.6513 5.39062ZM66.5447 3.28125L65.7409 2.68639L65.7371 2.69164L66.5447 3.28125ZM67.4013 2.61222L66.9945 1.69869L66.9918 1.69989L67.4013 2.61222ZM70.1626 2.79545L69.5529 3.58808L69.5559 3.59033L70.1626 2.79545ZM70.6829 2.95825L69.7795 3.21393L70.3242 5.13834L71.2276 4.88266L70.6829 2.95825ZM70.9874 3.82308C70.8911 3.56778 70.7544 3.33429 70.5889 3.12218L69.0119 4.35225C69.0681 4.42423 69.0989 4.48336 69.1162 4.52919L70.9874 3.82308ZM70.6023 3.13974C70.3871 2.85085 70.1094 2.63728 69.8045 2.48483L68.91 4.27369C68.9801 4.30874 68.9979 4.33381 68.9985 4.3347L70.6023 3.13974ZM69.8045 2.48483C69.4343 2.29975 69.0271 2.23864 68.6371 2.23864V4.23864C68.8322 4.23864 68.9052 4.27127 68.91 4.27369L69.8045 2.48483ZM68.6371 2.23864C68.0813 2.23864 67.5366 2.36831 67.0669 2.69312L68.2044 4.33813C68.2688 4.29363 68.3917 4.23864 68.6371 4.23864V2.23864ZM67.0687 2.69184C66.5776 3.02986 66.2393 3.54964 66.2393 4.21023H68.2393C68.2393 4.21885 68.2382 4.23578 68.2325 4.25808C68.2267 4.28068 68.2177 4.30239 68.207 4.3212C68.1848 4.36003 68.1696 4.3621 68.2026 4.33941L67.0687 2.69184ZM66.2393 4.21023C66.2393 4.73833 66.4491 5.23416 66.8889 5.58462L68.1353 4.0205C68.1578 4.03846 68.1915 4.07465 68.2159 4.12758C68.2392 4.17832 68.2393 4.21245 68.2393 4.21023H66.2393ZM66.8889 5.58462C67.2355 5.86083 67.6819 6.02494 68.1218 6.13492L68.6069 4.19463C68.4507 4.15559 68.3351 4.11647 68.2526 4.08144C68.2121 4.06421 68.1829 4.04935 68.1629 4.03796C68.1428 4.02652 68.1348 4.02013 68.1353 4.0205L66.8889 5.58462ZM68.1258 6.13591L69.0974 6.37455L69.5745 4.43227L68.6029 4.19364L68.1258 6.13591ZM69.1001 6.37519C69.5838 6.4926 69.8218 6.64502 69.9302 6.75554L71.3582 5.35526C70.8927 4.88054 70.2586 4.59831 69.5718 4.43162L69.1001 6.37519ZM69.9336 6.75901C70.0119 6.83809 70.0746 6.94731 70.0746 7.17614H72.0746C72.0746 6.49019 71.8503 5.85226 71.3548 5.35178L69.9336 6.75901ZM70.0746 7.17614C70.0746 7.34465 70.0308 7.47211 69.9433 7.5918L71.5581 8.77183C71.9025 8.30062 72.0746 7.75762 72.0746 7.17614H70.0746ZM69.9396 7.5969C69.8449 7.72818 69.6965 7.85719 69.4497 7.96687L70.262 9.79449C70.7822 9.56326 71.2303 9.22636 71.5618 8.76674L69.9396 7.5969ZM69.4497 7.96687C69.2181 8.0698 68.9154 8.13636 68.5178 8.13636V10.1364C69.1372 10.1364 69.7265 10.0325 70.262 9.79449L69.4497 7.96687ZM68.5178 8.13636C67.9933 8.13636 67.6467 8.02325 67.4123 7.86799L66.3079 9.53542C66.9485 9.95971 67.707 10.1364 68.5178 10.1364V8.13636ZM67.4123 7.86799C67.2137 7.73648 67.0755 7.5501 67.0079 7.22707L65.0503 7.63657C65.2157 8.42717 65.6314 9.08738 66.3079 9.53542L67.4123 7.86799ZM66.2717 8.40196L67.2262 8.16332L66.7411 6.22304L65.7866 6.46168L66.2717 8.40196ZM66.0154 7.44306C66.1547 7.98285 66.4443 8.4696 66.9277 8.80632L68.0709 7.16527C68.0486 7.14971 67.9945 7.10805 67.9519 6.9433L66.0154 7.44306ZM66.932 8.8093C67.4012 9.13253 67.9514 9.25 68.5007 9.25V7.25C68.2262 7.25 68.1088 7.19133 68.0666 7.16229L66.932 8.8093ZM68.5007 9.25C69.1017 9.25 69.7026 9.12323 70.2024 8.7626L69.032 7.14081C68.9806 7.1779 68.8372 7.25 68.5007 7.25V9.25ZM70.2039 8.76151C70.677 8.41876 71.0348 7.90164 71.0348 7.22727H69.0348C69.0348 7.21418 69.0365 7.19532 69.0424 7.17342C69.0482 7.15147 69.0564 7.13316 69.064 7.11989C69.0792 7.09364 69.0816 7.10487 69.0305 7.1419L70.2039 8.76151ZM71.0348 7.22727C71.0348 6.73714 70.851 6.28422 70.4903 5.93641L69.102 7.37609C69.0905 7.36498 69.069 7.33911 69.0525 7.29966C69.0362 7.2608 69.0348 7.2325 69.0348 7.22727H71.0348ZM70.4969 5.9428C70.1556 5.60763 69.7127 5.43125 69.2899 5.33285L68.8365 7.28078C68.9477 7.30665 69.02 7.33375 69.0633 7.35437C69.1061 7.3748 69.1098 7.38375 69.0955 7.3697L70.4969 5.9428ZM69.2914 5.3332L68.2005 5.07752L67.7441 7.02475L68.835 7.28043L69.2914 5.3332ZM68.2029 5.07808C67.7041 4.95989 67.4745 4.806 67.3789 4.70461L65.9237 6.07664C66.3906 6.57184 67.0416 6.85829 67.7417 7.02419L68.2029 5.07808ZM67.3856 4.71177C67.2959 4.6148 67.2337 4.4891 67.2337 4.26136H65.2337C65.2337 4.93703 65.4498 5.56418 65.917 6.06948L67.3856 4.71177ZM67.2337 4.26136C67.2337 4.09271 67.2765 3.97486 67.3524 3.87086L65.7371 2.69164C65.3982 3.15582 65.2337 3.69139 65.2337 4.26136H67.2337ZM67.3486 3.87609C67.4451 3.74573 67.5875 3.62475 67.8107 3.52454L66.9918 1.69989C66.4935 1.92355 66.0649 2.24859 65.7409 2.68641L67.3486 3.87609ZM67.8081 3.52573C68.0252 3.42905 68.2953 3.36932 68.6371 3.36932V1.36932C68.0584 1.36932 67.5046 1.47152 66.9945 1.6987L67.8081 3.52573ZM68.6371 3.36932C69.1487 3.36932 69.4153 3.48217 69.5529 3.58808L70.7724 2.00283C70.1714 1.54055 69.4209 1.36932 68.6371 1.36932V3.36932ZM69.5559 3.59033C69.761 3.74693 69.9111 3.95209 70.0072 4.23842L71.9034 3.60249C71.6869 2.957 71.3086 2.41216 70.7694 2.00058L69.5559 3.59033Z" fill="black"/>
</svg>
